<svg width="327" height="17" viewBox="0 0 327 17" fill="none" xmlns="http://www.w3.org/2000/svg">
<line x1="4.37114e-08" y1="8" x2="70.5" y2="8.00001" stroke="#D1D5DB"/>
<path d="M101.021 2.97168C98.225 2.97168 96.475 4.94043 96.475 8.07129C96.475 11.2021 98.225 13.1641 101.021 13.1641C103.817 13.1641 105.567 11.2021 105.567 8.07129C105.567 4.94043 103.817 2.97168 101.021 2.97168ZM101.021 4.10645C103.037 4.10645 104.302 5.6377 104.302 8.07129C104.302 10.498 103.037 12.0293 101.021 12.0293C99.0043 12.0293 97.7396 10.498 97.7396 8.07129C97.7396 5.6377 99.0043 4.10645 101.021 4.10645ZM107.053 13H108.243V8.57031C108.243 7.56543 108.844 6.90234 109.767 6.90234C110.054 6.90234 110.307 6.93652 110.403 6.9707V5.81543C110.307 5.80176 110.13 5.76758 109.925 5.76758C109.091 5.76758 108.434 6.2666 108.202 7.05273H108.175V5.89062H107.053V13ZM120.698 11.8926H115.94V3.13574H114.709V13H120.698V11.8926ZM124.748 13.123C126.71 13.123 128.036 11.708 128.036 9.44531C128.036 7.17578 126.71 5.76758 124.748 5.76758C122.779 5.76758 121.453 7.17578 121.453 9.44531C121.453 11.708 122.779 13.123 124.748 13.123ZM124.748 12.0771C123.49 12.0771 122.663 11.1201 122.663 9.44531C122.663 7.77051 123.49 6.81348 124.748 6.81348C126.006 6.81348 126.826 7.77051 126.826 9.44531C126.826 11.1201 126.006 12.0771 124.748 12.0771ZM132.271 12.0088C131.047 12.0088 130.247 11.0107 130.247 9.41797C130.247 7.8252 131.047 6.81348 132.271 6.81348C133.508 6.81348 134.335 7.85254 134.335 9.41797C134.335 10.9834 133.508 12.0088 132.271 12.0088ZM132.312 15.6797C134.274 15.6797 135.525 14.5518 135.525 12.8564V5.89062H134.39V7.08691H134.369C133.898 6.25977 133.064 5.76758 132.059 5.76758C130.22 5.76758 129.03 7.18945 129.03 9.41797C129.03 11.626 130.22 13.0547 132.031 13.0547C133.029 13.0547 133.87 12.5488 134.308 11.7764H134.335V12.8975C134.335 13.957 133.59 14.668 132.36 14.668C131.471 14.668 130.767 14.2373 130.534 13.5879H129.311C129.509 14.7979 130.746 15.6797 132.312 15.6797ZM137.278 13H138.467V5.89062H137.278V13ZM137.873 4.69434C138.283 4.69434 138.618 4.35938 138.618 3.95605C138.618 3.5459 138.283 3.21777 137.873 3.21777C137.469 3.21777 137.134 3.5459 137.134 3.95605C137.134 4.35938 137.469 4.69434 137.873 4.69434ZM140.214 13H141.403V8.81641C141.403 7.61328 142.135 6.82031 143.256 6.82031C144.35 6.82031 144.89 7.44922 144.89 8.59766V13H146.079V8.38574C146.079 6.77246 145.177 5.76758 143.618 5.76758C142.517 5.76758 141.759 6.25977 141.362 7.02539H141.335V5.89062H140.214V13ZM156.408 5.17285H156.476L158.753 13H159.915L162.601 3.13574H161.316L159.34 11.1885H159.286L157.064 3.13574H155.82L153.598 11.1885H153.544L151.568 3.13574H150.283L152.969 13H154.131L156.408 5.17285ZM163.883 13H165.072V5.89062H163.883V13ZM164.478 4.69434C164.888 4.69434 165.223 4.35938 165.223 3.95605C165.223 3.5459 164.888 3.21777 164.478 3.21777C164.074 3.21777 163.739 3.5459 163.739 3.95605C163.739 4.35938 164.074 4.69434 164.478 4.69434ZM167.202 4.1748V5.89062H166.142V6.86816H167.202V11.1543C167.202 12.5215 167.707 13.0547 169.013 13.0547C169.293 13.0547 169.621 13.0342 169.765 13V12.002C169.683 12.0156 169.41 12.0361 169.273 12.0361C168.664 12.0361 168.391 11.7422 168.391 11.0928V6.86816H169.772V5.89062H168.391V4.1748H167.202ZM171.245 13H172.434V8.85742C172.434 7.62695 173.166 6.82031 174.348 6.82031C175.463 6.82031 176.03 7.49707 176.03 8.625V13H177.219V8.40625C177.219 6.82031 176.276 5.76758 174.717 5.76758C173.637 5.76758 172.858 6.23242 172.462 7.02539H172.434V3.13574H171.245V13ZM188.478 13H189.77L186.133 3.13574H184.916L181.28 13H182.572L183.563 10.1768H187.487L188.478 13ZM185.504 4.63281H185.545L187.124 9.13086H183.925L185.504 4.63281ZM196.623 8.22168C196.472 6.94336 195.413 5.76758 193.636 5.76758C191.674 5.76758 190.368 7.20312 190.368 9.44531C190.368 11.7354 191.68 13.123 193.649 13.123C195.262 13.123 196.452 12.125 196.637 10.71H195.468C195.262 11.5645 194.627 12.0771 193.656 12.0771C192.426 12.0771 191.578 11.0996 191.578 9.44531C191.578 7.83203 192.412 6.81348 193.642 6.81348C194.688 6.81348 195.29 7.44922 195.461 8.22168H196.623ZM203.777 8.22168C203.626 6.94336 202.567 5.76758 200.789 5.76758C198.827 5.76758 197.522 7.20312 197.522 9.44531C197.522 11.7354 198.834 13.123 200.803 13.123C202.416 13.123 203.606 12.125 203.79 10.71H202.621C202.416 11.5645 201.78 12.0771 200.81 12.0771C199.579 12.0771 198.732 11.0996 198.732 9.44531C198.732 7.83203 199.566 6.81348 200.796 6.81348C201.842 6.81348 202.444 7.44922 202.614 8.22168H203.777ZM207.97 13.123C209.932 13.123 211.258 11.708 211.258 9.44531C211.258 7.17578 209.932 5.76758 207.97 5.76758C206.001 5.76758 204.675 7.17578 204.675 9.44531C204.675 11.708 206.001 13.123 207.97 13.123ZM207.97 12.0771C206.712 12.0771 205.885 11.1201 205.885 9.44531C205.885 7.77051 206.712 6.81348 207.97 6.81348C209.228 6.81348 210.048 7.77051 210.048 9.44531C210.048 11.1201 209.228 12.0771 207.97 12.0771ZM218.439 5.89062H217.25V10.0674C217.25 11.2773 216.553 12.0703 215.397 12.0703C214.297 12.0703 213.757 11.4482 213.757 10.293V5.89062H212.567V10.5049C212.567 12.1182 213.476 13.123 215.028 13.123C216.122 13.123 216.86 12.665 217.284 11.8447H217.311V13H218.439V5.89062ZM220.124 13H221.314V8.81641C221.314 7.61328 222.045 6.82031 223.166 6.82031C224.26 6.82031 224.8 7.44922 224.8 8.59766V13H225.989V8.38574C225.989 6.77246 225.087 5.76758 223.529 5.76758C222.428 5.76758 221.669 6.25977 221.273 7.02539H221.245V5.89062H220.124V13ZM228.03 4.1748V5.89062H226.97V6.86816H228.03V11.1543C228.03 12.5215 228.536 13.0547 229.841 13.0547C230.122 13.0547 230.45 13.0342 230.593 13V12.002C230.511 12.0156 230.238 12.0361 230.101 12.0361C229.493 12.0361 229.219 11.7422 229.219 11.0928V6.86816H230.6V5.89062H229.219V4.1748H228.03Z" fill="#6B7280"/>
<line x1="256.5" y1="8" x2="327" y2="8" stroke="#D1D5DB"/>
</svg>
