<svg width="327" height="17" viewBox="0 0 327 17" fill="none" xmlns="http://www.w3.org/2000/svg">
<line x1="4.37114e-08" y1="8" x2="64.5" y2="8.00001" stroke="#D1D5DB"/>
<path d="M95.0362 2.97168C92.2403 2.97168 90.4903 4.94043 90.4903 8.07129C90.4903 11.2021 92.2403 13.1641 95.0362 13.1641C97.8321 13.1641 99.5821 11.2021 99.5821 8.07129C99.5821 4.94043 97.8321 2.97168 95.0362 2.97168ZM95.0362 4.10645C97.0528 4.10645 98.3174 5.6377 98.3174 8.07129C98.3174 10.498 97.0528 12.0293 95.0362 12.0293C93.0196 12.0293 91.7549 10.498 91.7549 8.07129C91.7549 5.6377 93.0196 4.10645 95.0362 4.10645ZM101.069 13H102.258V8.57031C102.258 7.56543 102.86 6.90234 103.783 6.90234C104.07 6.90234 104.323 6.93652 104.418 6.9707V5.81543C104.323 5.80176 104.145 5.76758 103.94 5.76758C103.106 5.76758 102.45 6.2666 102.217 7.05273H102.19V5.89062H101.069V13ZM108.253 10.2861C108.369 12.0293 109.818 13.1641 111.91 13.1641C114.18 13.1641 115.602 12.0361 115.602 10.2314C115.602 8.81641 114.775 8.03027 112.731 7.51758L111.698 7.24414C110.359 6.89551 109.812 6.45117 109.812 5.70605C109.812 4.74219 110.7 4.0791 111.979 4.0791C113.264 4.0791 114.118 4.72852 114.228 5.78809H115.458C115.403 4.13379 113.982 2.97168 112.02 2.97168C109.969 2.97168 108.533 4.12012 108.533 5.76074C108.533 7.10059 109.34 7.90039 111.158 8.36523L112.423 8.69336C113.749 9.03516 114.33 9.54785 114.33 10.3818C114.33 11.3525 113.359 12.0566 112.026 12.0566C110.618 12.0566 109.607 11.3525 109.49 10.2861H108.253ZM117.054 13H118.244V5.89062H117.054V13ZM117.649 4.69434C118.059 4.69434 118.394 4.35938 118.394 3.95605C118.394 3.5459 118.059 3.21777 117.649 3.21777C117.246 3.21777 116.911 3.5459 116.911 3.95605C116.911 4.35938 117.246 4.69434 117.649 4.69434ZM122.882 12.0088C121.658 12.0088 120.858 11.0107 120.858 9.41797C120.858 7.8252 121.658 6.81348 122.882 6.81348C124.119 6.81348 124.946 7.85254 124.946 9.41797C124.946 10.9834 124.119 12.0088 122.882 12.0088ZM122.923 15.6797C124.885 15.6797 126.136 14.5518 126.136 12.8564V5.89062H125.001V7.08691H124.98C124.509 6.25977 123.675 5.76758 122.67 5.76758C120.831 5.76758 119.641 7.18945 119.641 9.41797C119.641 11.626 120.831 13.0547 122.642 13.0547C123.64 13.0547 124.481 12.5488 124.919 11.7764H124.946V12.8975C124.946 13.957 124.201 14.668 122.971 14.668C122.082 14.668 121.378 14.2373 121.145 13.5879H119.922C120.12 14.7979 121.357 15.6797 122.923 15.6797ZM127.827 13H129.017V8.81641C129.017 7.61328 129.748 6.82031 130.869 6.82031C131.963 6.82031 132.503 7.44922 132.503 8.59766V13H133.693V8.38574C133.693 6.77246 132.79 5.76758 131.232 5.76758C130.131 5.76758 129.372 6.25977 128.976 7.02539H128.948V5.89062H127.827V13ZM144.199 5.89062H143.01V10.0674C143.01 11.2773 142.312 12.0703 141.157 12.0703C140.057 12.0703 139.517 11.4482 139.517 10.293V5.89062H138.327V10.5049C138.327 12.1182 139.236 13.123 140.788 13.123C141.882 13.123 142.62 12.665 143.044 11.8447H143.071V13H144.199V5.89062ZM149.336 5.76758C148.304 5.76758 147.477 6.29395 147.039 7.09375H147.012V5.89062H145.884V15.3721H147.074V11.8447H147.101C147.525 12.624 148.345 13.123 149.364 13.123C151.155 13.123 152.378 11.6738 152.378 9.44531C152.378 7.2168 151.148 5.76758 149.336 5.76758ZM149.104 12.0771C147.887 12.0771 147.067 11.0312 147.067 9.44531C147.067 7.86621 147.887 6.81348 149.104 6.81348C150.368 6.81348 151.161 7.83887 151.161 9.44531C151.161 11.0586 150.368 12.0771 149.104 12.0771ZM162.393 5.17285H162.461L164.737 13H165.899L168.586 3.13574H167.301L165.325 11.1885H165.271L163.049 3.13574H161.805L159.583 11.1885H159.528L157.553 3.13574H156.268L158.954 13H160.116L162.393 5.17285ZM169.868 13H171.057V5.89062H169.868V13ZM170.462 4.69434C170.872 4.69434 171.207 4.35938 171.207 3.95605C171.207 3.5459 170.872 3.21777 170.462 3.21777C170.059 3.21777 169.724 3.5459 169.724 3.95605C169.724 4.35938 170.059 4.69434 170.462 4.69434ZM173.186 4.1748V5.89062H172.127V6.86816H173.186V11.1543C173.186 12.5215 173.692 13.0547 174.998 13.0547C175.278 13.0547 175.606 13.0342 175.75 13V12.002C175.668 12.0156 175.394 12.0361 175.258 12.0361C174.649 12.0361 174.376 11.7422 174.376 11.0928V6.86816H175.757V5.89062H174.376V4.1748H173.186ZM177.23 13H178.419V8.85742C178.419 7.62695 179.15 6.82031 180.333 6.82031C181.447 6.82031 182.015 7.49707 182.015 8.625V13H183.204V8.40625C183.204 6.82031 182.261 5.76758 180.702 5.76758C179.622 5.76758 178.843 6.23242 178.446 7.02539H178.419V3.13574H177.23V13ZM194.463 13H195.755L192.118 3.13574H190.901L187.264 13H188.556L189.548 10.1768H193.471L194.463 13ZM191.489 4.63281H191.53L193.109 9.13086H189.91L191.489 4.63281ZM202.608 8.22168C202.457 6.94336 201.398 5.76758 199.62 5.76758C197.658 5.76758 196.353 7.20312 196.353 9.44531C196.353 11.7354 197.665 13.123 199.634 13.123C201.247 13.123 202.437 12.125 202.621 10.71H201.452C201.247 11.5645 200.611 12.0771 199.641 12.0771C198.41 12.0771 197.563 11.0996 197.563 9.44531C197.563 7.83203 198.397 6.81348 199.627 6.81348C200.673 6.81348 201.275 7.44922 201.445 8.22168H202.608ZM209.761 8.22168C209.611 6.94336 208.551 5.76758 206.774 5.76758C204.812 5.76758 203.506 7.20312 203.506 9.44531C203.506 11.7354 204.819 13.123 206.788 13.123C208.401 13.123 209.59 12.125 209.775 10.71H208.606C208.401 11.5645 207.765 12.0771 206.794 12.0771C205.564 12.0771 204.716 11.0996 204.716 9.44531C204.716 7.83203 205.55 6.81348 206.781 6.81348C207.827 6.81348 208.428 7.44922 208.599 8.22168H209.761ZM213.955 13.123C215.917 13.123 217.243 11.708 217.243 9.44531C217.243 7.17578 215.917 5.76758 213.955 5.76758C211.986 5.76758 210.66 7.17578 210.66 9.44531C210.66 11.708 211.986 13.123 213.955 13.123ZM213.955 12.0771C212.697 12.0771 211.87 11.1201 211.87 9.44531C211.87 7.77051 212.697 6.81348 213.955 6.81348C215.213 6.81348 216.033 7.77051 216.033 9.44531C216.033 11.1201 215.213 12.0771 213.955 12.0771ZM224.424 5.89062H223.235V10.0674C223.235 11.2773 222.537 12.0703 221.382 12.0703C220.281 12.0703 219.741 11.4482 219.741 10.293V5.89062H218.552V10.5049C218.552 12.1182 219.461 13.123 221.013 13.123C222.107 13.123 222.845 12.665 223.269 11.8447H223.296V13H224.424V5.89062ZM226.109 13H227.298V8.81641C227.298 7.61328 228.03 6.82031 229.151 6.82031C230.245 6.82031 230.785 7.44922 230.785 8.59766V13H231.974V8.38574C231.974 6.77246 231.072 5.76758 229.513 5.76758C228.413 5.76758 227.654 6.25977 227.257 7.02539H227.23V5.89062H226.109V13ZM234.015 4.1748V5.89062H232.955V6.86816H234.015V11.1543C234.015 12.5215 234.52 13.0547 235.826 13.0547C236.106 13.0547 236.435 13.0342 236.578 13V12.002C236.496 12.0156 236.223 12.0361 236.086 12.0361C235.478 12.0361 235.204 11.7422 235.204 11.0928V6.86816H236.585V5.89062H235.204V4.1748H234.015Z" fill="#6B7280"/>
<line x1="262.5" y1="8" x2="327" y2="8" stroke="#D1D5DB"/>
</svg>
