<svg width="24" height="24" viewBox="0 0 24 24" fill="none" xmlns="http://www.w3.org/2000/svg">
<rect width="24" height="24" rx="12" fill="#3366FF"/>
<path d="M10.4082 12.0977H11.4688C12.6758 12.0977 13.4258 12.7129 13.4258 13.709C13.4258 14.5938 12.623 15.2266 11.5039 15.2266C10.3672 15.2266 9.64648 14.6289 9.55273 13.7617H8.53906C8.61523 15.1621 9.74609 16.1406 11.5156 16.1406C13.1738 16.1406 14.498 15.127 14.498 13.6738C14.498 12.4844 13.6777 11.6934 12.4004 11.6172V11.5938C13.4551 11.4062 14.1348 10.6445 14.1348 9.58398C14.1348 8.3125 12.9922 7.4043 11.4805 7.4043C9.89258 7.4043 8.82617 8.32422 8.70898 9.75977H9.72266C9.81641 8.875 10.4609 8.31836 11.4336 8.31836C12.5059 8.31836 13.0742 8.88672 13.0742 9.72461C13.0742 10.5801 12.3945 11.207 11.4219 11.207H10.4082V12.0977Z" fill="#F4F4F5"/>
</svg>
