<svg width="16" height="17" viewBox="0 0 16 17" fill="none" xmlns="http://www.w3.org/2000/svg">
<path d="M10.7933 1.83325H5.20665C2.77998 1.83325 1.33331 3.27992 1.33331 5.70659V11.2866C1.33331 13.7199 2.77998 15.1666 5.20665 15.1666H10.7866C13.2133 15.1666 14.66 13.7199 14.66 11.2933V5.70659C14.6666 3.27992 13.22 1.83325 10.7933 1.83325ZM11.1866 6.96659L7.40665 10.7466C7.31331 10.8399 7.18665 10.8933 7.05331 10.8933C6.91998 10.8933 6.79331 10.8399 6.69998 10.7466L4.81331 8.85992C4.61998 8.66659 4.61998 8.34659 4.81331 8.15325C5.00665 7.95992 5.32665 7.95992 5.51998 8.15325L7.05331 9.68659L10.48 6.25992C10.6733 6.06659 10.9933 6.06659 11.1866 6.25992C11.38 6.45325 11.38 6.76659 11.1866 6.96659Z" fill="#3366FF"/>
</svg>
