<svg width="45" height="44" viewBox="0 0 45 44" fill="none" xmlns="http://www.w3.org/2000/svg">
<circle cx="22.5" cy="22" r="21.5" stroke="#9CA3AF"/>
<path d="M20.9844 22.8984H22.3906C23.875 22.8984 24.7969 23.6484 24.7969 24.8672C24.7969 25.9688 23.8125 26.75 22.4375 26.75C21.0156 26.75 20.125 26.0078 20.0156 24.9297H18.3359C18.4453 26.875 20.0078 28.2109 22.4375 28.2109C24.7891 28.2109 26.5781 26.8594 26.5781 24.8906C26.5781 23.3125 25.4844 22.2734 23.7891 22.1562V22.125C25.1875 21.875 26.1094 20.8672 26.1094 19.4609C26.1094 17.7266 24.5547 16.5156 22.4219 16.5156C20.1875 16.5156 18.6953 17.7891 18.5625 19.7656H20.2109C20.3125 18.6562 21.125 17.9531 22.3438 17.9531C23.6797 17.9531 24.3984 18.6484 24.3984 19.6953C24.3984 20.7578 23.5625 21.5234 22.3438 21.5234H20.9844V22.8984Z" fill="#9CA3AF"/>
</svg>
