<svg width="20" height="21" viewBox="0 0 20 21" fill="none" xmlns="http://www.w3.org/2000/svg">
<path d="M13.3333 19.4583H6.66667C1.875 19.4583 1.875 16.9167 1.875 14.6667V13.8333C1.875 11.975 1.875 9.875 5.83333 9.875C6.825 9.875 7.19167 10.1167 7.70833 10.5C7.73333 10.525 7.76667 10.5417 7.79167 10.575L8.64167 11.475C9.35833 12.2333 10.6583 12.2333 11.375 11.475L12.225 10.575C12.25 10.55 12.275 10.525 12.3083 10.5C12.825 10.1083 13.1917 9.875 14.1833 9.875C18.1417 9.875 18.1417 11.975 18.1417 13.8333V14.6667C18.125 17.85 16.5167 19.4583 13.3333 19.4583ZM5.83333 11.125C3.125 11.125 3.125 11.975 3.125 13.8333V14.6667C3.125 16.95 3.125 18.2083 6.66667 18.2083H13.3333C15.8167 18.2083 16.875 17.15 16.875 14.6667V13.8333C16.875 11.975 16.875 11.125 14.1667 11.125C13.5667 11.125 13.4417 11.2 13.0833 11.4667L12.275 12.325C11.675 12.9583 10.8667 13.3083 10 13.3083C9.13333 13.3083 8.325 12.9583 7.725 12.325L6.91667 11.4667C6.55833 11.2 6.43333 11.125 5.83333 11.125Z" fill="#111827"/>
<path d="M15.8334 11.1251C15.4917 11.1251 15.2084 10.8417 15.2084 10.5001V5.50008C15.2084 3.64175 15.2084 2.79175 12.5001 2.79175H7.50008C4.79175 2.79175 4.79175 3.64175 4.79175 5.50008V10.5001C4.79175 10.8417 4.50841 11.1251 4.16675 11.1251C3.82508 11.1251 3.54175 10.8417 3.54175 10.5001V5.50008C3.54175 3.64175 3.54175 1.54175 7.50008 1.54175H12.5001C16.4584 1.54175 16.4584 3.64175 16.4584 5.50008V10.5001C16.4584 10.8417 16.1751 11.1251 15.8334 11.1251Z" fill="#111827"/>
<path d="M11.5667 8.81665H8.79175C8.45008 8.81665 8.16675 8.53332 8.16675 8.19165C8.16675 7.84998 8.45008 7.56665 8.79175 7.56665H11.5667C11.9084 7.56665 12.1917 7.84998 12.1917 8.19165C12.1917 8.53332 11.9167 8.81665 11.5667 8.81665Z" fill="#111827"/>
<path d="M12.2668 6.31665H8.1001C7.75843 6.31665 7.4751 6.03332 7.4751 5.69165C7.4751 5.34998 7.75843 5.06665 8.1001 5.06665H12.2668C12.6084 5.06665 12.8918 5.34998 12.8918 5.69165C12.8918 6.03332 12.6168 6.31665 12.2668 6.31665Z" fill="#111827"/>
</svg>
