<svg width="40" height="41" viewBox="0 0 40 41" fill="none" xmlns="http://www.w3.org/2000/svg">
<rect y="0.5" width="40" height="40" rx="8" fill="#5865F2"/>
<path d="M6 16.6C6 13.2397 6 11.5595 6.65396 10.2761C7.2292 9.14708 8.14708 8.2292 9.27606 7.65396C10.5595 7 12.2397 7 15.6 7H24.4C27.7603 7 29.4405 7 30.7239 7.65396C31.8529 8.2292 32.7708 9.14708 33.346 10.2761C34 11.5595 34 13.2397 34 16.6V25.4C34 28.7603 34 30.4405 33.346 31.7239C32.7708 32.8529 31.8529 33.7708 30.7239 34.346C29.4405 35 27.7603 35 24.4 35H15.6C12.2397 35 10.5595 35 9.27606 34.346C8.14708 33.7708 7.2292 32.8529 6.65396 31.7239C6 30.4405 6 28.7603 6 25.4V16.6Z" fill="#5865F2"/>
<path d="M27.6361 14.34C26.212 13.714 24.6892 13.259 23.0973 13C22.9018 13.3321 22.6734 13.7787 22.5159 14.1341C20.8236 13.895 19.1469 13.895 17.4857 14.1341C17.3283 13.7787 17.0946 13.3321 16.8974 13C15.3037 13.259 13.7793 13.7157 12.3552 14.3433C9.48276 18.4213 8.70409 22.3981 9.09342 26.3184C10.9986 27.6551 12.8449 28.467 14.66 28.9983C15.1082 28.4189 15.5079 27.8029 15.8523 27.1536C15.1964 26.9195 14.5683 26.6306 13.9748 26.2951C14.1323 26.1856 14.2863 26.071 14.4351 25.9531C18.0551 27.5438 21.9881 27.5438 25.5649 25.9531C25.7154 26.071 25.8694 26.1856 26.0251 26.2951C25.4299 26.6322 24.8 26.9211 24.1442 27.1553C24.4885 27.8029 24.8865 28.4205 25.3364 29C27.1533 28.4687 29.0013 27.6567 30.9065 26.3184C31.3633 21.7738 30.1261 17.8335 27.6361 14.34ZM16.3454 23.9075C15.2587 23.9075 14.3676 22.9543 14.3676 21.7937C14.3676 20.6331 15.2397 19.6783 16.3454 19.6783C17.4511 19.6783 18.3422 20.6314 18.3232 21.7937C18.325 22.9543 17.4511 23.9075 16.3454 23.9075ZM23.6545 23.9075C22.5678 23.9075 21.6767 22.9543 21.6767 21.7937C21.6767 20.6331 22.5488 19.6783 23.6545 19.6783C24.7602 19.6783 25.6514 20.6314 25.6323 21.7937C25.6323 22.9543 24.7602 23.9075 23.6545 23.9075Z" fill="white"/>
</svg>
