<svg width="21" height="20" viewBox="0 0 21 20" fill="none" xmlns="http://www.w3.org/2000/svg">
<path d="M13.2169 18.5416H7.78356C3.69189 18.5416 1.94189 16.7916 1.94189 12.6999V12.5916C1.94189 8.89161 3.40023 7.10827 6.66689 6.79994C7.00023 6.77494 7.31689 7.02494 7.35023 7.36661C7.38356 7.70827 7.13356 8.01661 6.78356 8.04994C4.16689 8.29161 3.19189 9.52494 3.19189 12.5999V12.7083C3.19189 16.0999 4.39189 17.2999 7.78356 17.2999H13.2169C16.6086 17.2999 17.8086 16.0999 17.8086 12.7083V12.5999C17.8086 9.50827 16.8169 8.27494 14.1502 8.04994C13.8086 8.01661 13.5502 7.71661 13.5836 7.37494C13.6169 7.03327 13.9086 6.77494 14.2586 6.80827C17.5752 7.09161 19.0586 8.88327 19.0586 12.6083V12.7166C19.0586 16.7916 17.3086 18.5416 13.2169 18.5416Z" fill="#3366FF"/>
<path d="M10.5 13.1251C10.1583 13.1251 9.875 12.8417 9.875 12.5001V3.01672C9.875 2.67506 10.1583 2.39172 10.5 2.39172C10.8417 2.39172 11.125 2.67506 11.125 3.01672V12.5001C11.125 12.8417 10.8417 13.1251 10.5 13.1251Z" fill="#3366FF"/>
<path d="M13.2917 5.50003C13.1334 5.50003 12.975 5.4417 12.85 5.3167L10.5 2.9667L8.15003 5.3167C7.90837 5.55837 7.50837 5.55837 7.2667 5.3167C7.02503 5.07503 7.02503 4.67503 7.2667 4.43337L10.0584 1.6417C10.3 1.40003 10.7 1.40003 10.9417 1.6417L13.7334 4.43337C13.975 4.67503 13.975 5.07503 13.7334 5.3167C13.6167 5.4417 13.45 5.50003 13.2917 5.50003Z" fill="#3366FF"/>
</svg>
