<svg width="24" height="25" viewBox="0 0 24 25" fill="none" xmlns="http://www.w3.org/2000/svg">
<path d="M5 15.25C3.48 15.25 2.25 14.02 2.25 12.5C2.25 10.98 3.48 9.75 5 9.75C6.52 9.75 7.75 10.98 7.75 12.5C7.75 14.02 6.52 15.25 5 15.25ZM5 11.25C4.31 11.25 3.75 11.81 3.75 12.5C3.75 13.19 4.31 13.75 5 13.75C5.69 13.75 6.25 13.19 6.25 12.5C6.25 11.81 5.69 11.25 5 11.25Z" fill="#292D32"/>
<path d="M19 15.25C17.48 15.25 16.25 14.02 16.25 12.5C16.25 10.98 17.48 9.75 19 9.75C20.52 9.75 21.75 10.98 21.75 12.5C21.75 14.02 20.52 15.25 19 15.25ZM19 11.25C18.31 11.25 17.75 11.81 17.75 12.5C17.75 13.19 18.31 13.75 19 13.75C19.69 13.75 20.25 13.19 20.25 12.5C20.25 11.81 19.69 11.25 19 11.25Z" fill="#292D32"/>
<path d="M12 15.25C10.48 15.25 9.25 14.02 9.25 12.5C9.25 10.98 10.48 9.75 12 9.75C13.52 9.75 14.75 10.98 14.75 12.5C14.75 14.02 13.52 15.25 12 15.25ZM12 11.25C11.31 11.25 10.75 11.81 10.75 12.5C10.75 13.19 11.31 13.75 12 13.75C12.69 13.75 13.25 13.19 13.25 12.5C13.25 11.81 12.69 11.25 12 11.25Z" fill="#292D32"/>
</svg>
