<svg width="25" height="24" viewBox="0 0 25 24" fill="none" xmlns="http://www.w3.org/2000/svg">
<path d="M12.3003 2C9.68029 2 7.55029 4.13 7.55029 6.75C7.55029 9.32 9.56029 11.4 12.1803 11.49C12.2603 11.48 12.3403 11.48 12.4003 11.49C12.4203 11.49 12.4303 11.49 12.4503 11.49C12.4603 11.49 12.4603 11.49 12.4703 11.49C15.0303 11.4 17.0403 9.32 17.0503 6.75C17.0503 4.13 14.9203 2 12.3003 2Z" fill="#3366FF"/>
<path d="M17.3803 14.1499C14.5903 12.2899 10.0403 12.2899 7.23025 14.1499C5.96025 14.9999 5.26025 16.1499 5.26025 17.3799C5.26025 18.6099 5.96025 19.7499 7.22025 20.5899C8.62025 21.5299 10.4603 21.9999 12.3003 21.9999C14.1403 21.9999 15.9803 21.5299 17.3803 20.5899C18.6403 19.7399 19.3403 18.5999 19.3403 17.3599C19.3303 16.1299 18.6403 14.9899 17.3803 14.1499Z" fill="#3366FF"/>
</svg>
