<svg width="25" height="24" viewBox="0 0 25 24" fill="none" xmlns="http://www.w3.org/2000/svg">
<path d="M17.7202 2H8.08021C5.95021 2 4.22021 3.74 4.22021 5.86V19.95C4.22021 21.75 5.51021 22.51 7.09021 21.64L11.9702 18.93C12.4902 18.64 13.3302 18.64 13.8402 18.93L18.7202 21.64C20.3002 22.52 21.5902 21.76 21.5902 19.95V5.86C21.5802 3.74 19.8502 2 17.7202 2ZM15.4002 11.4H10.4002C9.99022 11.4 9.65022 11.06 9.65022 10.65C9.65022 10.24 9.99022 9.9 10.4002 9.9H15.4002C15.8102 9.9 16.1502 10.24 16.1502 10.65C16.1502 11.06 15.8102 11.4 15.4002 11.4Z" fill="#3366FF"/>
</svg>
