<svg width="16" height="17" viewBox="0 0 16 17" fill="none" xmlns="http://www.w3.org/2000/svg">
<path d="M10 15.6666H6.00001C2.38001 15.6666 0.833344 14.1199 0.833344 10.4999V6.49992C0.833344 2.87992 2.38001 1.33325 6.00001 1.33325H10C13.62 1.33325 15.1667 2.87992 15.1667 6.49992V10.4999C15.1667 14.1199 13.62 15.6666 10 15.6666ZM6.00001 2.33325C2.92668 2.33325 1.83334 3.42659 1.83334 6.49992V10.4999C1.83334 13.5733 2.92668 14.6666 6.00001 14.6666H10C13.0733 14.6666 14.1667 13.5733 14.1667 10.4999V6.49992C14.1667 3.42659 13.0733 2.33325 10 2.33325H6.00001Z" fill="#9CA3AF"/>
</svg>
