<svg width="40" height="41" viewBox="0 0 40 41" fill="none" xmlns="http://www.w3.org/2000/svg">
<rect y="0.5" width="40" height="40" rx="8" fill="white"/>
<path d="M6 16.1C6 12.7397 6 11.0595 6.65396 9.77606C7.2292 8.64708 8.14708 7.7292 9.27606 7.15396C10.5595 6.5 12.2397 6.5 15.6 6.5H24.4C27.7603 6.5 29.4405 6.5 30.7239 7.15396C31.8529 7.7292 32.7708 8.64708 33.346 9.77606C34 11.0595 34 12.7397 34 16.1V24.9C34 28.2603 34 29.9405 33.346 31.2239C32.7708 32.3529 31.8529 33.2708 30.7239 33.846C29.4405 34.5 27.7603 34.5 24.4 34.5H15.6C12.2397 34.5 10.5595 34.5 9.27606 33.846C8.14708 33.2708 7.2292 32.3529 6.65396 31.2239C6 29.9405 6 28.2603 6 24.9V16.1Z" fill="#4087FC"/>
<path d="M12.2667 14.5C11.5671 14.5 11 15.1396 11 15.9286V22.8571C11 24.869 12.4461 26.5 14.23 26.5L21.7333 26.4286C22.4329 26.4286 23 25.789 23 25V18C23 15.9881 21.2839 14.5 19.5 14.5L12.2667 14.5Z" fill="white"/>
<path d="M24.7122 17.2276C24.2596 17.6752 24 18.3211 24 19V21.8993C24 22.5782 24.2596 23.2242 24.7122 23.6717L27.5288 26.1525C28.1019 26.7191 29 26.2601 29 25.4005V15.6352C29 14.7755 28.1019 14.3165 27.5288 14.8832L24.7122 17.2276Z" fill="white"/>
</svg>
